<?xml version="1.0" standalone="no"?>
<!DOCTYPE svg PUBLIC "-//W3C//DTD SVG 20010904//EN"
 "http://www.w3.org/TR/2001/REC-SVG-20010904/DTD/svg10.dtd">
<svg version="1.0" xmlns="http://www.w3.org/2000/svg"
 width="378.000000pt" height="378.000000pt" viewBox="0 0 378.000000 378.000000"
 preserveAspectRatio="xMidYMid meet">
<metadata>
Created by potrace 1.11, written by Peter Selinger 2001-2013
</metadata>
<g transform="translate(0.000000,378.000000) scale(0.100000,-0.100000)"
fill="#000000" stroke="none">
<path d="M1570 3768 c-76 -34 -110 -48 -116 -48 -6 0 -62 -24 -360 -151 -50
-21 -94 -39 -97 -39 -4 0 -30 -11 -59 -24 -29 -13 -159 -67 -288 -121 -129
-53 -278 -115 -330 -137 -52 -22 -108 -46 -125 -53 -16 -7 -54 -23 -83 -36
l-52 -23 2 -370 3 -369 144 -48 c151 -50 146 -50 226 -14 16 7 68 29 115 48
119 49 323 134 400 167 233 99 408 170 418 170 9 0 12 -150 10 -642 l-3 -642
-90 -36 c-49 -20 -103 -42 -120 -49 -16 -8 -39 -17 -50 -22 -83 -34 -298 -123
-335 -139 -111 -47 -195 -82 -325 -135 -77 -31 -153 -63 -170 -71 -16 -7 -73
-31 -125 -52 l-95 -38 -3 -371 -2 -371 42 -16 c24 -8 90 -30 147 -49 l105 -33
118 48 c65 26 137 56 161 67 40 18 439 185 615 257 46 19 102 42 125 53 23 10
83 35 132 54 50 20 128 52 175 72 47 20 123 52 170 71 l85 35 -2 1025 c-2 938
0 1024 14 1024 9 0 90 -23 180 -52 l163 -52 0 -1126 0 -1125 28 -12 c78 -33
263 -84 284 -78 13 4 71 28 131 53 l107 46 0 1028 c0 565 3 1028 8 1029 4 0
82 -24 174 -53 l167 -53 1 -1127 0 -1126 146 -48 147 -48 71 26 c39 14 98 38
131 52 l60 25 0 1497 0 1497 -100 33 c-55 18 -228 74 -385 125 -157 50 -323
104 -370 120 -47 15 -179 58 -295 94 -115 37 -282 91 -370 120 -562 184 -590
191 -655 163z"/>
</g>
</svg>
